<mxfile host="Electron" agent="Mozilla/5.0 (Macintosh; Intel Mac OS X 10_15_7) AppleWebKit/537.36 (KHTML, like Gecko) draw.io/24.7.17 Chrome/128.0.6613.36 Electron/32.0.1 Safari/537.36" version="24.7.17">
  <diagram name="Page-1" id="-H_mtQnk-PTXWXPvYvuk">
    <mxGraphModel dx="1026" dy="743" grid="1" gridSize="10" guides="1" tooltips="1" connect="1" arrows="1" fold="1" page="1" pageScale="1" pageWidth="1169" pageHeight="827" math="0" shadow="0">
      <root>
        <mxCell id="0" />
        <mxCell id="1" parent="0" />
        <mxCell id="config" value="Config Servers (Replica Set)" style="swimlane;rounded=1;whiteSpace=wrap;html=1;fillColor=#dae8fc;" parent="1" vertex="1">
          <mxGeometry x="150" y="40" width="200" height="300" as="geometry" />
        </mxCell>
        <mxCell id="LzZ8D7OCZoHhMmrHZdRd-19" style="edgeStyle=orthogonalEdgeStyle;rounded=0;orthogonalLoop=1;jettySize=auto;html=1;entryX=0.5;entryY=0;entryDx=0;entryDy=0;" edge="1" parent="config" source="config-1" target="LzZ8D7OCZoHhMmrHZdRd-18">
          <mxGeometry relative="1" as="geometry" />
        </mxCell>
        <mxCell id="config-1" value="configSrv&amp;nbsp;&lt;div&gt;Primary&lt;/div&gt;" style="ellipse;whiteSpace=wrap;html=1;fillColor=#ffffff;" parent="config" vertex="1">
          <mxGeometry x="50" y="40" width="100" height="40" as="geometry" />
        </mxCell>
        <mxCell id="config-2" value="configSrv&lt;div&gt;Secondary 2&lt;br&gt;&lt;/div&gt;" style="ellipse;whiteSpace=wrap;html=1;fillColor=#ffffff;" parent="config" vertex="1">
          <mxGeometry x="50" y="240" width="100" height="40" as="geometry" />
        </mxCell>
        <mxCell id="LzZ8D7OCZoHhMmrHZdRd-20" style="edgeStyle=orthogonalEdgeStyle;rounded=0;orthogonalLoop=1;jettySize=auto;html=1;entryX=0.5;entryY=0;entryDx=0;entryDy=0;" edge="1" parent="config" source="LzZ8D7OCZoHhMmrHZdRd-18" target="config-2">
          <mxGeometry relative="1" as="geometry" />
        </mxCell>
        <mxCell id="LzZ8D7OCZoHhMmrHZdRd-18" value="configSrv&lt;div&gt;Secondary 1&lt;/div&gt;" style="ellipse;whiteSpace=wrap;html=1;fillColor=#ffffff;" vertex="1" parent="config">
          <mxGeometry x="50" y="130" width="100" height="40" as="geometry" />
        </mxCell>
        <mxCell id="shard1" value="Shard 1 (Replica Set)" style="swimlane;rounded=1;whiteSpace=wrap;html=1;fillColor=#fff2cc;strokeColor=#d6b656;" parent="1" vertex="1">
          <mxGeometry x="450" y="380" width="180" height="290" as="geometry" />
        </mxCell>
        <mxCell id="LzZ8D7OCZoHhMmrHZdRd-8" style="edgeStyle=orthogonalEdgeStyle;rounded=0;orthogonalLoop=1;jettySize=auto;html=1;exitX=0.5;exitY=1;exitDx=0;exitDy=0;entryX=0.5;entryY=0;entryDx=0;entryDy=0;" edge="1" parent="shard1" source="shard1-primary" target="shard1-secondary1">
          <mxGeometry relative="1" as="geometry" />
        </mxCell>
        <mxCell id="shard1-primary" value="Primary" style="ellipse;whiteSpace=wrap;html=1;fillColor=#ffffff;" parent="shard1" vertex="1">
          <mxGeometry x="40" y="40" width="100" height="40" as="geometry" />
        </mxCell>
        <mxCell id="LzZ8D7OCZoHhMmrHZdRd-9" style="edgeStyle=orthogonalEdgeStyle;rounded=0;orthogonalLoop=1;jettySize=auto;html=1;exitX=0.5;exitY=1;exitDx=0;exitDy=0;entryX=0.5;entryY=0;entryDx=0;entryDy=0;" edge="1" parent="shard1" source="shard1-secondary1" target="shard1-secondary2">
          <mxGeometry relative="1" as="geometry" />
        </mxCell>
        <mxCell id="shard1-secondary1" value="Secondary 1" style="ellipse;whiteSpace=wrap;html=1;fillColor=#ffffff;" parent="shard1" vertex="1">
          <mxGeometry x="40" y="130" width="100" height="40" as="geometry" />
        </mxCell>
        <mxCell id="shard1-secondary2" value="Secondary 2" style="ellipse;whiteSpace=wrap;html=1;fillColor=#ffffff;" parent="shard1" vertex="1">
          <mxGeometry x="40" y="220" width="100" height="40" as="geometry" />
        </mxCell>
        <mxCell id="shard2" value="Shard 2 (Replica Set)" style="swimlane;rounded=1;whiteSpace=wrap;html=1;fillColor=#fff2cc;" parent="1" vertex="1">
          <mxGeometry x="700" y="380" width="180" height="290" as="geometry" />
        </mxCell>
        <mxCell id="LzZ8D7OCZoHhMmrHZdRd-10" style="edgeStyle=orthogonalEdgeStyle;rounded=0;orthogonalLoop=1;jettySize=auto;html=1;exitX=0.5;exitY=1;exitDx=0;exitDy=0;entryX=0.5;entryY=0;entryDx=0;entryDy=0;" edge="1" parent="shard2" source="shard2-primary" target="shard2-secondary1">
          <mxGeometry relative="1" as="geometry" />
        </mxCell>
        <mxCell id="shard2-primary" value="Primary" style="ellipse;whiteSpace=wrap;html=1;fillColor=#ffffff;" parent="shard2" vertex="1">
          <mxGeometry x="40" y="40" width="100" height="40" as="geometry" />
        </mxCell>
        <mxCell id="LzZ8D7OCZoHhMmrHZdRd-11" style="edgeStyle=orthogonalEdgeStyle;rounded=0;orthogonalLoop=1;jettySize=auto;html=1;exitX=0.5;exitY=1;exitDx=0;exitDy=0;entryX=0.5;entryY=0;entryDx=0;entryDy=0;" edge="1" parent="shard2" source="shard2-secondary1" target="shard2-secondary2">
          <mxGeometry relative="1" as="geometry" />
        </mxCell>
        <mxCell id="shard2-secondary1" value="Secondary 1" style="ellipse;whiteSpace=wrap;html=1;fillColor=#ffffff;" parent="shard2" vertex="1">
          <mxGeometry x="40" y="130" width="100" height="40" as="geometry" />
        </mxCell>
        <mxCell id="shard2-secondary2" value="Secondary 2" style="ellipse;whiteSpace=wrap;html=1;fillColor=#ffffff;" parent="shard2" vertex="1">
          <mxGeometry x="40" y="220" width="100" height="40" as="geometry" />
        </mxCell>
        <mxCell id="LzZ8D7OCZoHhMmrHZdRd-15" style="edgeStyle=orthogonalEdgeStyle;rounded=0;orthogonalLoop=1;jettySize=auto;html=1;entryX=0.5;entryY=0;entryDx=0;entryDy=0;" edge="1" parent="1" source="LzZ8D7OCZoHhMmrHZdRd-1" target="LzZ8D7OCZoHhMmrHZdRd-5">
          <mxGeometry relative="1" as="geometry" />
        </mxCell>
        <mxCell id="LzZ8D7OCZoHhMmrHZdRd-1" value="pymongo-api" style="rounded=1;whiteSpace=wrap;html=1;" vertex="1" parent="1">
          <mxGeometry x="600" y="10" width="120" height="60" as="geometry" />
        </mxCell>
        <mxCell id="LzZ8D7OCZoHhMmrHZdRd-13" style="edgeStyle=orthogonalEdgeStyle;rounded=0;orthogonalLoop=1;jettySize=auto;html=1;entryX=0.5;entryY=0;entryDx=0;entryDy=0;" edge="1" parent="1" source="LzZ8D7OCZoHhMmrHZdRd-5" target="shard1">
          <mxGeometry relative="1" as="geometry" />
        </mxCell>
        <mxCell id="LzZ8D7OCZoHhMmrHZdRd-14" style="edgeStyle=orthogonalEdgeStyle;rounded=0;orthogonalLoop=1;jettySize=auto;html=1;exitX=0.5;exitY=1;exitDx=0;exitDy=0;entryX=0.5;entryY=0;entryDx=0;entryDy=0;" edge="1" parent="1" source="LzZ8D7OCZoHhMmrHZdRd-5" target="shard2">
          <mxGeometry relative="1" as="geometry" />
        </mxCell>
        <mxCell id="LzZ8D7OCZoHhMmrHZdRd-16" style="edgeStyle=orthogonalEdgeStyle;rounded=0;orthogonalLoop=1;jettySize=auto;html=1;entryX=1;entryY=0.5;entryDx=0;entryDy=0;" edge="1" parent="1" source="LzZ8D7OCZoHhMmrHZdRd-5" target="config">
          <mxGeometry relative="1" as="geometry" />
        </mxCell>
        <mxCell id="LzZ8D7OCZoHhMmrHZdRd-5" value="Router Servers" style="swimlane;rounded=1;whiteSpace=wrap;html=1;fillColor=#d5e8d4;strokeColor=#82b366;" vertex="1" parent="1">
          <mxGeometry x="560" y="120" width="200" height="140" as="geometry" />
        </mxCell>
        <mxCell id="LzZ8D7OCZoHhMmrHZdRd-6" value="mongos 1" style="ellipse;whiteSpace=wrap;html=1;fillColor=#ffffff;" vertex="1" parent="LzZ8D7OCZoHhMmrHZdRd-5">
          <mxGeometry x="50" y="40" width="100" height="40" as="geometry" />
        </mxCell>
        <mxCell id="LzZ8D7OCZoHhMmrHZdRd-7" value="mongos 2" style="ellipse;whiteSpace=wrap;html=1;fillColor=#ffffff;" vertex="1" parent="LzZ8D7OCZoHhMmrHZdRd-5">
          <mxGeometry x="50" y="90" width="100" height="40" as="geometry" />
        </mxCell>
      </root>
    </mxGraphModel>
  </diagram>
</mxfile>
